<?xml version="1.0" encoding="utf-8"?>
<!-- Generator: Adobe Illustrator 26.3.1, SVG Export Plug-In . SVG Version: 6.00 Build 0)  -->
<svg version="1.1" id="Layer_1" xmlns="http://www.w3.org/2000/svg" xmlns:xlink="http://www.w3.org/1999/xlink" x="0px" y="0px"
	 viewBox="0 0 840 683" style="enable-background:new 0 0 840 683;" xml:space="preserve">
<style type="text/css">
	.st0{fill:#388C9C;}
</style>
<g>
	<path class="st0" d="M419.7,589C212.1,589,73.4,480.3,73.4,341.3c0-139,138.7-247.7,346.3-247.7c208,0,346.3,108.7,346.3,247.7
		C766,480.3,627.2,589,419.7,589 M791,251.7c-12.9-39.4-5.3-67.9-27.6-96.1c-25.9-24.7-56.1-19.8-88.8-39.1
		c-31.3-21.6-38.7-50.1-69.9-61.9c-35.2-10.7-56.9,7-97,2c-43.9-8.5-49.9-31.5-88-32.9h-0.3c-38.1,1.4-44.1,24.4-88,32.9
		c-40,5-61.8-12.7-97-2c-31.2,11.8-38.5,40.3-69.9,61.9c-32.8,19.3-63,14.4-88.9,39.1c-22.3,28.3-14.6,56.8-27.6,96.1
		C32.7,289.8,5.4,303,5.4,341.1c0,38.1,27.3,51.7,42.9,89.8c12.9,39.4,5.3,67.9,27.6,96.2c25.9,24.7,56.1,19.8,88.9,39.1
		c31.4,21.6,38.7,50.1,69.9,61.9c35.2,10.7,56.9-7,97-2c43.9,8.5,49.9,31.5,88,32.9h0.3c38.1-1.4,44.1-24.4,88-32.9
		c40-5,61.7,12.7,97,2c31.1-11.8,38.5-40.3,69.9-61.9c32.8-19.3,63-14.4,88.8-39.1c22.3-28.3,14.7-56.8,27.6-96.2
		c15.6-38.1,43.1-52.1,43.1-89.8C834.1,302.8,806.6,289.8,791,251.7"/>
	<path class="st0" d="M360,390h-14.3c-1.3,0-3,0.4-3.6,3.2c-4.5,28.4-14.9,48.2-49.9,48.2c-48.4,0-53.9-65-53.9-113.7
		c0-32,10.1-96.8,52.1-96.8c33.4,0,43.9,18,49.4,47.7c0.5,2.5,1.7,3.3,3.6,3.3h14.2c2.3,0,3.6-1.4,3.6-3.6V215
		c0-2.3-1.5-3.7-3.6-3.7h-14.5c-1.8,0-2.5,0.7-3.5,2.9c-1.7,3.7-3.2,6.5-8.2,6.5c-3.6,0-6.1-1.6-11.5-4.2
		c-6.8-2.8-18.2-6.9-38.7-6.9c-64.4,0-111.8,48.9-111.8,126.9c0,65.8,39.6,125.9,112.2,125.9c32.1,0,46.4-8.4,54.5-8.4
		c3.4,0,4.9,2.3,5.8,4.1c0.9,1.9,2,2.3,3.4,2.3H360c2.2,0,3.6-1.4,3.6-3.6v-63.2C363.6,391.4,362.1,390,360,390"/>
	<path class="st0" d="M398.7,363.5c-12.7,0-20.8-8.1-20.8-21.9c0-8.8,5.1-18.1,12.6-22.9l26,35.8
		C411.5,359.7,406.6,363.5,398.7,363.5 M410.8,266.3c6.7,0,9.8,6.2,9.8,12.3c0,9-4.4,15.6-13.4,20.4c-4.9-7.3-7.7-12.3-7.7-20.2
		C399.5,272.1,403.5,266.3,410.8,266.3 M478,307.2h-28.2c-2.4,0-3,1.2-3.2,1.9c-2.3,9-6.6,18-13,27L416,309.9
		c12.8-5.6,26.9-14.3,26.9-28.4c0-16-13.3-26.2-31.6-26.2c-18.5,0-36.1,10-36.1,30.5c0,8.9,3.8,15.5,8.2,21.3
		c-14.1,4.3-31.5,17.2-31.1,35.6c0.4,21.2,19.3,33.7,42.8,33.7c9.5,0,21.9-1.9,32.3-10.1c8.5,8.6,22.7,7.6,22.7,7.6h11.4
		c2.3,0,2.9-1.1,3.4-2.2l3.5-8.3c1.3-3.1-1.5-2.8-2.3-2.8h-5.1c-11.6,0-17.2-9.4-17.2-9.4c7.2-7.2,8.3-9.3,12.9-15.8
		c2.9-4.1,6.9-10.7,6.9-10.7c1.8-2.8,3-4.6,6.1-4.6h3.9c1.6,0,2.6-0.8,3.4-2.3l3.3-7.7C481.5,307,479.6,307.2,478,307.2"/>
	<path class="st0" d="M507.8,370.9l38.9-96.8l29.3,96.8H507.8z M680.6,439.3l-4.4,0c-10.5,0-13.6-3-16.8-12
		c-0.1,0-66.5-189.7-74.6-212.9c-0.7-2-2.2-3.2-4.6-3.2h-28.5c-2,0-3.8,0.8-4.7,3.2l-89.4,213.9c-1.8,4.4-3.5,7-7.7,9.1
		c-4.2,2.1-11.7,1.8-11.7,1.8l-2.4,0.1c-2.3,0-3.6,1.4-3.6,3.6v13.9c0,2.3,1.5,3.6,3.6,3.6h69.6c2.3,0,3.7-1.5,3.7-3.7v-13.9
		c0-2.3-1.5-3.6-3.7-3.6l-7.7-0.1c-6.4-0.1-13.1-0.5-13.1-7.5c0-2.1,0.6-4.8,2-8.3l13.6-33.5h81.4c3.8,10.5,9.8,29.8,9.8,29.8
		s2.1,6.5,2.8,9.3c0.3,1,0.5,2.3,0.5,3.7c-0.1,3.1-1.7,6.3-8.4,6.4l-8.5,0.2c-2.2,0-3.7,1.4-3.7,3.6v13.9c0,2.1,1.4,3.6,3.7,3.6
		h102.8c2.1,0,3.7-1.4,3.7-3.7V443C684.3,440.7,682.8,439.3,680.6,439.3"/>
</g>
</svg>
