<svg width="218.027405" height="253.000000" viewBox="0 0 218.027 253" fill="none" xmlns="http://www.w3.org/2000/svg" xmlns:xlink="http://www.w3.org/1999/xlink">
	<desc>
			Created with Pixso.
	</desc>
	<defs/>
	<path d="M5 5L5 189L44 189L44 228L188 228L187 45L147 45L147 5.06L5 5Z" fill="#000000" fill-opacity="1.000000" fill-rule="evenodd"/>
	<path d="M147 5L212 65L213 248L69 248L65 248L58.5 248L5 189L147 5Z" fill="#000000" fill-opacity="1.000000" fill-rule="evenodd"/>
	<path d="M15 15L136.5 15L136.5 55.5L55.5 55.5L55.5 96L96 96L96 136.5L55.5 136.5L55.5 177.5L15 177.5L15 15Z" fill="#F25A70" fill-opacity="1.000000" fill-rule="evenodd"/>
	<path d="M136.5 15L15 15L15 177.5" stroke="#FFFFFF" stroke-opacity="1.000000" stroke-width="5.000000"/>
	<path d="M136.5 55.5L177.17 55.5L177.17 218L55.5 218L55.5 177.5L136.5 177.5L136.5 55.5Z" fill="#F25A70" fill-opacity="1.000000" fill-rule="evenodd"/>
	<path d="M177 55.5L177 218L55.5 218" stroke="#FFFFFF" stroke-opacity="1.000000" stroke-width="5.000000"/>
	<path d="M216.98 62.79L150.39 1.32L148.95 0L0 0L0 190.92L56.28 253L218.02 253L216.98 62.79ZM10 5L147 5L212 65L212.97 243L213 248L58.5 248L5 189L5 5L10 5Z" fill="#FFFFFF" fill-opacity="1.000000" fill-rule="evenodd"/>
	<path d="M176.5 217.5L215.5 250.5" stroke="#FFFFFF" stroke-opacity="1.000000" stroke-width="5.000000"/>
</svg>
